<svg width="256" height="213" viewBox="0 0 256 213" fill="none" xmlns="http://www.w3.org/2000/svg">
<path d="M28.4257 213L79.0622 140.524C73.5201 142.336 67.7195 143.235 61.8883 143.183C24.8725 143.183 0 114.783 0 75.1417C0 35.2073 27.2413 0 80.5396 0C128.215 0 159.895 29.5833 159.895 75.1417C159.895 101.175 152.788 121.292 137.098 144.074L89.7219 213H28.4257ZM51.8209 74.55C51.8209 90.8239 62.1813 105.317 81.1193 105.317C99.4776 105.317 110.137 91.4156 110.137 74.55C110.137 57.1114 99.4776 43.4906 81.1193 43.4906C63.3657 43.4906 51.8209 57.0927 51.8209 74.55Z" fill="white"/>
<path d="M134.735 170.898H144.815L152.795 188.436L160.774 170.898H170.854L176.003 203.284H165.125L162.513 186.406L154.895 203.29H150.688L143.076 186.406L140.464 203.29H129.58L134.735 170.898Z" fill="white"/>
<path d="M206.535 170.898H218.143V203.284H206.535V199.734C203.855 203.427 199.647 204.374 196.456 204.374C194.254 204.392 192.074 203.942 190.06 203.054C188.046 202.166 186.244 200.86 184.774 199.224C183.246 197.654 182.051 195.794 181.257 193.754C180.464 191.713 180.089 189.534 180.154 187.347C180.154 181.262 182.548 176.983 185.141 174.374C188.291 171.393 192.479 169.755 196.817 169.808C198.643 169.778 200.455 170.137 202.131 170.862C203.807 171.587 205.308 172.661 206.535 174.012V170.898ZM194.349 181.766C192.907 183.156 192.073 185.059 192.03 187.06C192.037 188.046 192.24 189.021 192.626 189.929C193.012 190.836 193.574 191.658 194.28 192.348C195.702 193.674 197.554 194.446 199.498 194.521C201.468 194.493 203.347 193.684 204.721 192.273C205.426 191.602 205.983 190.792 206.357 189.895C206.732 188.997 206.915 188.032 206.897 187.06C206.908 186.07 206.713 185.089 206.326 184.178C205.939 183.267 205.367 182.446 204.647 181.766C203.271 180.421 201.422 179.668 199.498 179.668C197.573 179.668 195.724 180.421 194.349 181.766Z" fill="white"/>
<path d="M233.141 191.986C231.04 191.553 229.088 190.579 227.481 189.159C226.178 187.857 224.944 185.609 224.944 182.202C224.87 179.297 225.906 176.473 227.842 174.305C230.386 171.621 234.226 170.898 238.87 170.898H255.988V203.284H244.393V193.002H243.452L236.345 203.29H224.158L233.141 191.986ZM244.362 178.434H240.883C239.724 178.434 238.271 178.509 237.255 179.449C236.909 179.816 236.64 180.249 236.465 180.722C236.291 181.195 236.214 181.699 236.239 182.202C236.208 182.713 236.289 183.224 236.478 183.7C236.666 184.176 236.957 184.604 237.33 184.955C238.334 185.631 239.531 185.961 240.74 185.895H244.362V178.434Z" fill="white"/>
</svg>
