<svg width="271" height="67" viewBox="0 0 271 67" fill="none" xmlns="http://www.w3.org/2000/svg">
<path d="M17.4148 22.7216C15.057 23.5741 13.756 23.8494 12.2818 23.8494C9.00243 23.9205 5.82843 22.6896 3.45453 20.426C1.2647 18.2107 0.0253415 15.2286 0 12.1138C0.021498 8.96154 1.25903 5.93928 3.45453 3.67725C4.58723 2.54755 5.93233 1.65324 7.4123 1.04586C8.89226 0.438478 10.4778 0.130047 12.0775 0.138347C13.9128 0.17228 15.7235 0.567597 17.4059 1.3017V8.40614C16.8017 7.61338 16.0194 6.97399 15.1223 6.53969C14.2252 6.10539 13.2384 5.8884 12.2418 5.90626C10.7283 5.84974 9.25317 6.39035 8.13458 7.41152C7.50374 8.01302 7.00293 8.73748 6.66307 9.54015C6.32322 10.3428 6.15155 11.2066 6.15866 12.0782C6.16163 13.7446 6.82601 15.3417 8.00582 16.5185C9.18114 17.5436 10.6912 18.1028 12.2507 18.0904C13.1388 18.0904 15.3278 17.9883 17.4148 15.6971V22.7216Z" fill="#C94D35"/>
<path d="M43.2483 23.3344V5.57334H35.0782V23.3344H29.1505V0.515869H49.2027V23.3344H43.2483Z" fill="#C94D35"/>
<path d="M59.9082 15.7727V23.3211H53.9893V0.515869H63.4338C65.4186 0.515869 67.47 0.888852 69.2061 2.56728C70.9423 4.2457 71.3286 6.19498 71.3286 8.10874C71.3286 9.92481 71.0888 12.0473 69.3083 13.7879C67.5277 15.5284 65.4097 15.7727 63.6292 15.7727H59.9082ZM59.9082 10.986H61.893C62.5102 10.986 63.6691 10.915 64.3929 10.2667C64.6637 9.99544 64.8714 9.66777 65.0011 9.30704C65.1308 8.94632 65.1794 8.56142 65.1433 8.17978C65.1733 7.80874 65.1282 7.43547 65.0107 7.08225C64.8932 6.72903 64.7057 6.40311 64.4595 6.12394C63.7757 5.40905 62.6834 5.30249 61.9285 5.30249H59.9082V10.986Z" fill="#C94D35"/>
<path d="M86.7007 19.5025H78.4196L76.8789 23.3344H70.6003L79.3787 0.515869H85.8438L94.4357 23.3344H88.1039L86.7007 19.5025ZM85.1289 14.9867L82.5624 7.59811L80.0625 14.9867H85.1289Z" fill="#C94D35"/>
<path d="M96.8602 2.46499C97.843 1.80777 98.8996 1.26828 100.008 0.857607C101.55 0.275131 103.187 -0.0154691 104.835 0.000634405C108.121 0.000634405 109.932 1.06186 110.958 2.05204C111.537 2.60525 111.989 3.27688 112.284 4.021C112.579 4.76512 112.71 5.56419 112.668 6.36355C112.705 7.53753 112.357 8.69149 111.677 9.64935C111.144 10.4327 110.411 11.0596 109.555 11.4654V11.5676C110.494 11.8521 111.359 12.342 112.086 13.0018C112.611 13.4912 113.028 14.0848 113.311 14.7446C113.594 15.4044 113.736 16.1159 113.729 16.8337C113.737 17.9039 113.483 18.9598 112.988 19.9089C112.493 20.858 111.773 21.6712 110.891 22.2775C108.871 23.6806 106.203 23.8494 104.457 23.8494C102.573 23.895 100.698 23.5582 98.9471 22.8592C97.5699 22.2725 96.2992 21.4624 95.1862 20.4614L98.1967 16.1499C98.8761 16.9244 99.6862 17.5737 100.59 18.0681C101.538 18.5724 102.598 18.8304 103.672 18.8185C104.54 18.8429 105.399 18.6425 106.167 18.2368C106.493 18.0427 106.762 17.7668 106.948 17.4366C107.134 17.1064 107.231 16.7332 107.228 16.3542C107.217 16.0067 107.117 15.6679 106.937 15.3701C106.758 15.0724 106.505 14.8257 106.203 14.6535C105.794 14.3827 105.004 14.1074 103.396 14.1074H101.176V9.5117H102.65C103.778 9.5117 105.421 9.34297 106.203 8.55704C106.58 8.16833 106.789 7.64671 106.784 7.10507C106.772 6.78635 106.686 6.47487 106.531 6.1957C106.377 5.91652 106.16 5.67744 105.896 5.49769C105.239 5.08908 104.475 4.88648 103.703 4.91602C102.779 4.90975 101.867 5.11959 101.038 5.52878C100.365 5.87537 99.7344 6.30013 99.1602 6.79426L96.8602 2.46499Z" fill="#C94D35"/>
<path d="M137.098 0.515869V18.7521H139.838V28.4674H134.509V23.3344H120.607V28.4674H115.278V18.7521C116.277 18.6134 117.196 18.1295 117.876 17.3845C119.59 15.6084 119.861 13.1396 119.861 9.88929V0.515869H137.098ZM125.602 10.471C125.623 12.0846 125.439 13.6944 125.056 15.262C124.706 16.5767 124.022 17.7788 123.071 18.7521H131.144V5.09823H125.602V10.471Z" fill="#C94D35"/>
<path d="M148.834 9.03232H157.386V0.515869H163.34V23.3344H157.386V14.0987H148.834V23.3344H142.915V0.515869H148.834V9.03232Z" fill="#C94D35"/>
<path d="M174.085 0.515869V14.8846L182.637 0.515869H188.712V23.3344H182.739V8.96571L174.188 23.3344H168.131V0.515869H174.085Z" fill="#C94D35"/>
<path d="M199.404 9.92481L206.655 0.515869H213.977L204.91 11.3279L214.798 23.3167H207.134L199.404 13.446V23.3344H193.485V0.515869H199.404V9.92481Z" fill="#C94D35"/>
<path d="M236.08 20.4618C233.754 22.6819 230.468 23.8497 227.084 23.8497C223.701 23.8497 220.424 22.6863 218.084 20.4618C216.947 19.3498 216.044 18.0219 215.427 16.556C214.81 15.0901 214.492 13.5157 214.492 11.9253C214.492 10.3349 214.81 8.76059 215.427 7.29468C216.044 5.82878 216.947 4.50086 218.084 3.38891C220.411 1.16877 223.697 0.000976562 227.084 0.000976562C230.472 0.000976562 233.745 1.16433 236.08 3.38891C237.218 4.50086 238.121 5.82878 238.738 7.29468C239.355 8.76059 239.672 10.3349 239.672 11.9253C239.672 13.5157 239.355 15.0901 238.738 16.556C238.121 18.0219 237.218 19.3498 236.08 20.4618ZM222.458 7.54944C221.874 8.13962 221.413 8.84002 221.102 9.60991C220.791 10.3798 220.636 11.2038 220.646 12.0341C220.641 12.8294 220.799 13.6172 221.111 14.3489C221.422 15.0806 221.881 15.7405 222.458 16.2879C223.071 16.8788 223.795 17.3429 224.589 17.6537C225.382 17.9646 226.228 18.1161 227.08 18.0995C227.91 18.1317 228.739 17.9965 229.516 17.7019C230.293 17.4072 231.003 16.9593 231.603 16.3846C232.203 15.81 232.682 15.1204 233.01 14.357C233.339 13.5936 233.51 12.7719 233.514 11.9409C233.513 11.1229 233.35 10.3132 233.033 9.55917C232.715 8.80515 232.251 8.12193 231.667 7.54944C230.413 6.40853 228.78 5.77535 227.084 5.77333C225.37 5.74074 223.71 6.37789 222.458 7.54944Z" fill="#C94D35"/>
<path d="M242.412 23.3344L246.275 0.515869H252.128L256.746 12.6955L261.63 0.515869H267.549L270.972 23.3344H265.084L263.384 10.2134L257.878 23.3522H255.516L250.245 10.2134L248.296 23.3522L242.412 23.3344Z" fill="#C94D35"/>
<path d="M15.1236 61.8716V44.1105H6.94466V61.8716H1.02577V39.0486H21.0781V61.8716H15.1236Z" fill="#C94D35"/>
<path d="M46.4319 58.9942C44.1052 61.2144 40.8194 62.3822 37.4315 62.3822C34.0435 62.3822 30.7711 61.2188 28.431 58.9942C27.294 57.8823 26.3905 56.5544 25.7737 55.0885C25.1569 53.6226 24.8392 52.0482 24.8392 50.4578C24.8392 48.8674 25.1569 47.2931 25.7737 45.8272C26.3905 44.3612 27.294 43.0333 28.431 41.9214C30.7577 39.7012 34.0435 38.5334 37.4315 38.5334C40.8194 38.5334 44.0919 39.6968 46.4319 41.9214C47.5689 43.0333 48.4724 44.3612 49.0892 45.8272C49.706 47.2931 50.0237 48.8674 50.0237 50.4578C50.0237 52.0482 49.706 53.6226 49.0892 55.0885C48.4724 56.5544 47.5689 57.8823 46.4319 58.9942ZM32.8136 46.0952C32.2279 46.6845 31.7656 47.3846 31.4538 48.1546C31.1419 48.9247 30.9868 49.7492 30.9975 50.5799C30.9937 51.3734 31.153 52.1592 31.4654 52.8887C31.7778 53.6181 32.2367 54.2756 32.8136 54.8204C33.4258 55.4123 34.1489 55.8774 34.9414 56.1891C35.7338 56.5008 36.5801 56.6528 37.4315 56.6365C38.2611 56.6655 39.0882 56.5282 39.8638 56.2324C40.6395 55.9367 41.3481 55.4886 41.9478 54.9146C42.5475 54.3405 43.0261 53.6522 43.3555 52.8902C43.6848 52.1282 43.8582 51.3079 43.8654 50.4778C43.8634 49.6613 43.6991 48.8534 43.382 48.101C43.0648 47.3486 42.6013 46.6668 42.0183 46.0952C40.7684 44.9411 39.1327 44.2951 37.4315 44.2836C35.7146 44.261 34.0571 44.9113 32.8136 46.0952Z" fill="#C94D35"/>
<path d="M53.7851 39.0486H68.6334V44.075H59.7529V48.0135H62.0796C64.9879 48.0135 67.5899 48.4575 69.2995 50.2336C70.4484 51.5723 71.0685 53.2846 71.0432 55.0485C71.0178 56.8124 70.3487 58.5062 69.1618 59.8113C67.3502 61.5874 64.6105 61.8672 61.8753 61.8672H53.7851V39.0486ZM61.7776 57.2537C62.4303 57.2537 63.6958 57.2226 64.4151 56.4678C64.8037 56.0238 65.0113 55.4502 64.9968 54.8604C65.0078 54.5436 64.9527 54.228 64.835 53.9336C64.7172 53.6393 64.5395 53.3727 64.313 53.1509C63.6248 52.5692 62.5369 52.5337 61.7776 52.5337H59.7262V57.2537H61.7776Z" fill="#C94D35"/>
<path d="M87.762 44.075H80.7109V47.8758H87.3713V52.9067H80.7109V56.8363H87.762V61.8672H74.792V39.0486H87.762V44.075Z" fill="#C94D35"/>
<path d="M111.54 39.0486V57.2804H114.279V66.9957H108.951V61.8716H95.0485V67.0001H89.6936V57.2804C90.6925 57.1416 91.6114 56.6578 92.2911 55.9127C94.0051 54.1366 94.2759 51.6678 94.2759 48.4176V39.0486H111.54ZM100.044 49.0037C100.067 50.6175 99.8834 52.2276 99.4977 53.7947C99.1502 55.1106 98.4662 56.3134 97.5129 57.2848H105.585V43.6309H100.044V49.0037Z" fill="#C94D35"/>
<path d="M117.357 39.0484H123.311V47.9289H126.184C128 47.9289 130.975 48.0666 132.995 50.0514C133.609 50.6906 134.087 51.4483 134.398 52.2781C134.71 53.1079 134.849 53.9926 134.807 54.878C134.807 56.4143 134.532 58.1948 133.097 59.6646C131.144 61.6494 128.133 61.8581 125.842 61.8581H117.357V39.0484ZM125.602 57.2802C126.25 57.2802 127.485 57.2802 128.169 56.5964C128.589 56.1284 128.81 55.5152 128.786 54.8868C128.806 54.5764 128.758 54.2653 128.645 53.9753C128.533 53.6854 128.358 53.4236 128.133 53.2084C127.485 52.5912 126.459 52.5246 125.602 52.5246H123.311V57.2802H125.602ZM136.703 39.0439H142.657V61.867H136.69L136.703 39.0439Z" fill="#C94D35"/>
<path d="M148.39 61.4587C147.896 60.9625 147.561 60.3317 147.424 59.6454C147.288 58.9591 147.358 58.2479 147.624 57.601C147.891 56.9541 148.343 56.4004 148.923 56.0092C149.503 55.618 150.185 55.4068 150.885 55.4021C151.359 55.4088 151.827 55.5091 152.262 55.6974C152.697 55.8856 153.091 56.158 153.42 56.4989C154.063 57.1669 154.418 58.0594 154.412 58.986C154.405 59.9126 154.036 60.7999 153.385 61.4587C153.061 61.7945 152.673 62.0617 152.244 62.2442C151.815 62.4267 151.354 62.5207 150.887 62.5207C150.421 62.5207 149.959 62.4267 149.53 62.2442C149.101 62.0617 148.713 61.7945 148.39 61.4587ZM148.012 54.1011V39.0486H153.691V54.1011H148.012Z" fill="#C94D35"/>
</svg>
