<svg width="113" height="101" viewBox="0 0 113 101" fill="none" xmlns="http://www.w3.org/2000/svg">
<path d="M42.5906 40.2185C46.8782 40.2185 50.354 36.7427 50.354 32.4551C50.354 28.1675 46.8782 24.6918 42.5906 24.6918C38.303 24.6918 34.8273 28.1675 34.8273 32.4551C34.8273 36.7427 38.303 40.2185 42.5906 40.2185Z" fill="#C94D35"/>
<path d="M106.315 61.0286C102.649 57.5782 98.0124 55.3139 92.9446 54.667V15.2032C92.9446 10.9981 91.2195 7.22424 88.5238 4.4208C85.7204 1.61737 81.9466 0 77.7414 0H15.2032C10.9981 0 7.22424 1.72519 4.4208 4.4208C1.61737 7.22424 0 10.9981 0 15.2032V64.9103V69.5468V79.5744C0 83.7796 1.72519 87.5534 4.4208 90.3569C7.22424 93.1603 10.9981 94.7777 15.2032 94.7777H75.6927C79.6822 98.0124 84.6422 100.061 90.1412 100.061C96.5029 100.061 102.218 97.4733 106.315 93.376C110.412 89.2786 113 83.5639 113 77.2023C113 70.8407 110.412 65.126 106.315 61.0286ZM5.71469 15.2032C5.71469 12.6155 6.79294 10.2433 8.51813 8.62595C10.2433 6.90076 12.6155 5.82252 15.2032 5.82252H77.7414C80.3292 5.82252 82.7013 6.90076 84.4265 8.62595C86.1517 10.3511 87.23 12.7233 87.23 15.3111V48.9523L71.2719 32.9943C70.1937 31.916 68.3607 31.8082 67.1746 32.9943L43.1298 57.1469L26.8483 40.7576C25.77 39.6794 23.937 39.5716 22.751 40.7576L5.71469 58.0095V15.2032ZM15.0954 89.2786V89.063C12.5076 89.063 10.1355 87.9847 8.41031 86.2595C6.79294 84.5344 5.71469 82.1622 5.71469 79.5744V69.5468V66.2042L24.7996 47.0115L41.0811 63.2929C42.1593 64.3712 43.9924 64.3712 45.1784 63.2929L69.2233 39.1403L84.9656 54.9905C84.6422 55.0983 84.3187 55.2061 83.9952 55.3139C83.5639 55.4218 83.1326 55.5296 82.5935 55.7452C82.1622 55.8531 81.7309 56.0687 81.2996 56.1765C80.9761 56.2844 80.7605 56.3922 80.437 56.6078C80.0057 56.8235 79.6822 56.9313 79.3588 57.1469C78.8196 57.4704 78.2805 57.7939 77.7414 58.1174C77.4179 58.333 77.2023 58.4408 76.8788 58.6565C76.6632 58.7643 76.5553 58.8721 76.3397 58.98C75.3693 59.6269 74.5067 60.3817 73.7519 61.2443C69.6546 65.3416 67.0668 71.0563 67.0668 77.4179C67.0668 79.0353 67.2824 80.5448 67.6059 82.1622C67.7137 82.5935 67.8216 82.917 67.9294 83.3483C68.2529 84.4265 68.5763 85.5048 69.0076 86.583V86.6908C69.4389 87.5534 69.8702 88.5239 70.4093 89.2786H15.0954ZM102.11 89.2786C98.9828 92.4055 94.7777 94.2386 90.0334 94.2386C85.5048 94.2386 81.2996 92.4055 78.2805 89.4943C77.8492 89.063 77.4179 88.5239 76.9866 88.0926C76.6632 87.7691 76.3397 87.3378 76.0162 87.0143C75.5849 86.4752 75.2614 85.8282 74.938 85.1813C74.7223 84.75 74.5067 84.4265 74.291 83.9952C74.0754 83.4561 73.8597 82.8092 73.7519 82.1622C73.6441 81.7309 73.4284 81.1918 73.3206 80.7605C73.105 79.6823 72.9971 78.4962 72.9971 77.3101C72.9971 72.5658 74.938 68.3607 77.9571 65.2338C80.9761 62.1069 85.2891 60.2739 90.0334 60.2739C94.7777 60.2739 98.9828 62.2147 102.11 65.2338C105.237 68.3607 107.07 72.5658 107.07 77.3101C107.07 81.9466 105.129 86.1517 102.11 89.2786Z" fill="#C94D35"/>
<path d="M92.0821 65.6651C91.8664 65.4494 91.543 65.2338 91.1117 65.0181C90.7882 64.9103 90.4647 64.8025 90.1413 64.8025C90.0334 64.8025 90.0334 64.8025 90.0334 64.8025C89.9256 64.8025 89.9256 64.8025 89.9256 64.8025C89.6021 64.8025 89.2787 64.9103 88.9552 65.0181C88.6317 65.126 88.3082 65.3416 87.9848 65.6651L81.2997 72.3502C80.2214 73.4284 80.2214 75.2615 81.2997 76.4475C82.3779 77.5258 84.2109 77.5258 85.397 76.4475L87.1222 74.7223V86.583C87.1222 88.2004 88.4161 89.4943 90.0334 89.4943C91.6508 89.4943 92.9447 88.2004 92.9447 86.583V74.7223L94.6699 76.4475C95.7481 77.5258 97.5811 77.5258 98.7672 76.4475C99.8454 75.3693 99.8454 73.5363 98.7672 72.3502L92.0821 65.6651Z" fill="#C94D35"/>
</svg>
