<svg width="27" height="27" viewBox="0 0 27 27" fill="none" xmlns="http://www.w3.org/2000/svg">
<circle cx="13.1944" cy="13.1944" r="13.1944" fill="#FF9800"/>
<path d="M12.7829 15.9773C11.7524 15.8754 10.8233 15.6349 10.0278 15.0453C9.9291 14.972 9.82719 14.9013 9.73712 14.8193C9.38894 14.5024 9.35385 14.1395 9.62936 13.7655C9.86506 13.4454 10.2607 13.3598 10.672 13.5436C10.7516 13.5792 10.8275 13.6237 10.9001 13.6714C12.3827 14.6367 14.4193 14.6634 15.9074 13.7148C16.0548 13.6077 16.2124 13.5204 16.395 13.4758C16.7502 13.3894 17.0814 13.513 17.272 13.8074C17.4897 14.1437 17.4869 14.472 17.2186 14.733C16.8071 15.1333 16.3122 15.4229 15.7623 15.625C15.2423 15.8161 14.6728 15.9122 14.1091 15.9761C14.1942 16.0638 14.2343 16.107 14.2874 16.1576C15.0528 16.8864 15.8216 17.6121 16.5845 18.3431C16.8444 18.5922 16.8987 18.9011 16.7556 19.1908C16.5991 19.5074 16.2489 19.7157 15.9054 19.6934C15.6878 19.6792 15.5181 19.5765 15.3673 19.4326C14.7897 18.8818 14.2013 18.3412 13.6353 17.7799C13.4706 17.6167 13.3914 17.6476 13.2461 17.7893C12.665 18.3562 12.0744 18.9144 11.4804 19.4694C11.2137 19.7186 10.8962 19.7635 10.5869 19.6211C10.2581 19.4701 10.0488 19.152 10.065 18.8323C10.0761 18.6161 10.1883 18.4509 10.3449 18.3028C11.1024 17.586 11.8578 16.8674 12.6135 16.1494C12.6635 16.1017 12.7101 16.051 12.7829 15.9773Z" fill="white"/>
<path d="M13.4104 13.4793C11.572 13.4734 10.0645 12.0292 10.0753 10.2844C10.0858 8.52027 11.5943 7.09865 13.4508 7.10353C15.3111 7.10828 16.8042 8.55035 16.7949 10.3328C16.7854 12.0741 15.2675 13.4854 13.4104 13.4793ZM15.0812 10.2886C15.078 9.42224 14.3499 8.73253 13.4374 8.73174C12.5173 8.73082 11.7827 9.43305 11.7898 10.3073C11.7966 11.1704 12.531 11.8552 13.4459 11.852C14.3581 11.849 15.0843 11.1548 15.0812 10.2886Z" fill="white"/>
</svg>
