<svg width="27" height="27" viewBox="0 0 27 27" fill="none" xmlns="http://www.w3.org/2000/svg">
<circle cx="13.8058" cy="13.1944" r="13.1944" fill="#48729E"/>
<path fill-rule="evenodd" clip-rule="evenodd" d="M14.4591 18.4927C14.4591 18.4927 14.7414 18.4619 14.8859 18.3095C15.0182 18.1699 15.0136 17.9064 15.0136 17.9064C15.0136 17.9064 14.996 16.6759 15.5781 16.4942C16.1517 16.3155 16.8882 17.6841 17.6699 18.2104C18.2603 18.6083 18.7085 18.5212 18.7085 18.5212L20.7973 18.4927C20.7973 18.4927 21.8894 18.4266 21.3716 17.5835C21.3288 17.5145 21.0695 16.9597 19.819 15.82C18.5089 14.6271 18.6848 14.82 20.2619 12.7562C21.2225 11.4994 21.6064 10.7322 21.4864 10.4041C21.3724 10.0903 20.6657 10.1736 20.6657 10.1736L18.3146 10.1879C18.3146 10.1879 18.1402 10.1646 18.011 10.2404C17.8848 10.3148 17.803 10.4882 17.803 10.4882C17.803 10.4882 17.4313 11.4604 16.9349 12.2877C15.8878 14.0325 15.4695 14.1248 15.2981 14.0167C14.8997 13.7637 14.9991 13.0017 14.9991 12.4604C14.9991 10.769 15.2607 10.064 14.4905 9.88157C14.235 9.82076 14.0469 9.78097 13.393 9.77422C12.5539 9.76596 11.8442 9.77722 11.4419 9.97016C11.1742 10.0985 10.9677 10.3853 11.0939 10.4018C11.2492 10.4221 11.601 10.4949 11.7876 10.7442C12.0285 11.0663 12.0201 11.7885 12.0201 11.7885C12.0201 11.7885 12.1585 13.7795 11.6966 14.0265C11.3799 14.1961 10.9455 13.85 10.0117 12.2667C9.53365 11.4559 9.17265 10.5595 9.17265 10.5595C9.17265 10.5595 9.10305 10.3921 8.97838 10.302C8.82771 10.1931 8.61738 10.1594 8.61738 10.1594L6.38332 10.1736C6.38332 10.1736 6.04756 10.1826 5.92443 10.326C5.81506 10.4529 5.91601 10.7164 5.91601 10.7164C5.91601 10.7164 7.66517 14.7337 9.64607 16.7585C11.4625 18.6143 13.5245 18.4927 13.5245 18.4927H14.4591Z" fill="white"/>
</svg>
