<?xml version="1.0" encoding="utf-8"?><svg viewBox="0 0 27 27" xmlns="http://www.w3.org/2000/svg" xmlns:xlink="http://www.w3.org/1999/xlink"><style>:root>svg{display:none}:root>svg:target{display:block}</style><svg fill="none" viewBox="0 0 27 27" id="fb" xmlns="http://www.w3.org/2000/svg"><circle cx="13.5" cy="13.194" r="13.194" fill="#3B5998"/><path fill-rule="evenodd" clip-rule="evenodd" d="M14.5 18.765V12.9h1.619l.214-2.02H14.5l.002-1.012c0-.527.05-.81.808-.81h1.012V7.037h-1.62c-1.944 0-2.629.98-2.629 2.63v1.213h-1.212v2.02h1.212v5.865H14.5z" fill="#fff"/></svg><svg fill="none" viewBox="0 0 27 27" id="ok" xmlns="http://www.w3.org/2000/svg"><circle cx="13.194" cy="13.194" r="13.194" fill="#FF9800"/><path d="M12.783 15.977c-1.03-.102-1.96-.342-2.755-.932-.099-.073-.2-.144-.29-.226-.35-.317-.384-.68-.109-1.054.236-.32.632-.405 1.043-.221.08.035.155.08.228.127 1.483.966 3.52.992 5.007.044.148-.107.305-.195.488-.24.355-.086.686.038.877.332.218.337.215.665-.053.926-.412.4-.907.69-1.457.892-.52.191-1.09.287-1.653.351.085.088.125.131.178.182.766.728 1.535 1.454 2.297 2.185.26.25.315.558.172.848a.913.913 0 01-.85.502c-.218-.014-.388-.117-.539-.26-.577-.551-1.166-1.092-1.732-1.653-.164-.163-.244-.132-.389.01-.581.566-1.172 1.124-1.766 1.68-.266.249-.584.294-.893.151-.329-.15-.538-.469-.522-.789.011-.216.123-.381.28-.53.757-.716 1.513-1.435 2.268-2.153.05-.047.097-.098.17-.172z" fill="#fff"/><path d="M13.41 13.48c-1.838-.007-3.345-1.45-3.335-3.196.01-1.764 1.52-3.185 3.376-3.18 1.86.004 3.353 1.446 3.344 3.229-.01 1.741-1.528 3.152-3.385 3.146zm1.671-3.191c-.003-.867-.731-1.556-1.644-1.557-.92-.001-1.654.701-1.647 1.575.007.863.741 1.548 1.656 1.545.912-.003 1.638-.697 1.635-1.563z" fill="#fff"/></svg><svg fill="none" viewBox="0 0 27 27" id="vk" xmlns="http://www.w3.org/2000/svg"><circle cx="13.806" cy="13.194" r="13.194" fill="#48729E"/><path fill-rule="evenodd" clip-rule="evenodd" d="M14.46 18.493s.281-.031.426-.183c.132-.14.128-.404.128-.404s-.018-1.23.564-1.412c.574-.178 1.31 1.19 2.092 1.716.59.398 1.038.311 1.038.311l2.09-.028s1.091-.066.574-.91c-.043-.068-.302-.623-1.553-1.763-1.31-1.193-1.134-1 .443-3.064.96-1.257 1.344-2.024 1.224-2.352-.114-.314-.82-.23-.82-.23l-2.351.014s-.175-.023-.304.052c-.126.075-.208.248-.208.248s-.372.972-.868 1.8c-1.047 1.745-1.465 1.837-1.637 1.729C14.9 13.764 15 13.002 15 12.46c0-1.691.262-2.396-.508-2.578-.256-.061-.444-.101-1.098-.108-.84-.008-1.549.003-1.951.196-.268.128-.474.415-.348.432.155.02.507.093.694.342.24.322.232 1.045.232 1.045s.139 1.99-.323 2.238c-.317.17-.752-.177-1.685-1.76-.478-.811-.84-1.707-.84-1.707s-.069-.168-.194-.258c-.15-.109-.36-.143-.36-.143l-2.235.015s-.335.009-.459.152c-.109.127-.008.39-.008.39s1.75 4.018 3.73 6.043c1.816 1.855 3.878 1.734 3.878 1.734h.935z" fill="#fff"/></svg></svg>